<svg xmlns="http://www.w3.org/2000/svg" width="250" height="250" viewBox="0 0 250 250">
    <defs>
        <linearGradient id="prefix__a" x1="47.495%" x2="47.495%" y1="0%" y2="100%">
            <stop offset="0%" stop-color="#334366"/>
            <stop offset="100%" stop-color="#21314D"/>
            <stop offset="100%" stop-color="#1C2940"/>
        </linearGradient>
        <linearGradient id="prefix__c" x1="47.495%" x2="47.495%" y1="0%" y2="100%">
            <stop offset="0%" stop-color="#192133"/>
            <stop offset="100%" stop-color="#111826"/>
        </linearGradient>
        <filter id="prefix__b" width="151.3%" height="151.3%" x="-25.6%" y="-25.6%" filterUnits="objectBoundingBox">
            <feOffset dy="2" in="SourceAlpha" result="shadowOffsetOuter1"/>
            <feGaussianBlur in="shadowOffsetOuter1" result="shadowBlurOuter1" stdDeviation="4"/>
            <feColorMatrix in="shadowBlurOuter1" result="shadowMatrixOuter1" values="0 0 0 0 0.223155513 0 0 0 0 0.259392639 0 0 0 0 0.283344656 0 0 0 0.0488690997 0"/>
            <feMerge>
                <feMergeNode in="shadowMatrixOuter1"/>
                <feMergeNode in="SourceGraphic"/>
            </feMerge>
        </filter>
    </defs>
    <g fill="none" fill-rule="evenodd">
        <path d="M0 0H250V250H0z"/>
        <path fill="url(#prefix__a)" d="M128.009 8.171C55.459 8.171 7.554 61.174 7.554 128.8c0 67.625 39.125 136.278 122.44 105.428 83.313-30.849 112.452-89.398 112.452-144.621 0-55.223-41.889-81.436-114.437-81.436z"/>
        <g fill="url(#prefix__c)" filter="url(#prefix__b)" transform="translate(86.364 86.364)">
            <path d="M44.371 8.402c.004-2.98-2.137-5.695-5.102-5.994-3.408-.34-6.284 2.33-6.285 5.67l-.014 23.176c0 .922-.748 1.67-1.67 1.67l-22.85.014c-2.979 0-5.694 2.145-5.994 5.11-.343 3.409 2.322 6.28 5.661 6.277l23.177-.014c.921 0 1.668.746 1.667 1.667l-.012 22.818c-.003 3.036 2.211 5.798 5.237 6.033 1.75.135 3.35-.523 4.479-1.652 1.031-1.031 1.668-2.457 1.67-4.029l.013-23.176c0-.922.749-1.67 1.67-1.67l23.177-.014c1.572-.001 2.997-.638 4.029-1.67 1.128-1.128 1.788-2.73 1.652-4.478-.234-3.028-2.998-5.24-6.032-5.239l-22.82.014c-.92 0-1.667-.746-1.667-1.668l.014-22.845z"/>
        </g>
    </g>
</svg>
